<svg t="1655553686230" class="icon" viewBox="0 0 1024 1024" version="1.1" xmlns="http://www.w3.org/2000/svg" p-id="10623" width="200" height="200"><path d="M584.3 428.6c5.4 0.1 10.5-1.9 14.4-5.6 3.9-3.7 6.1-8.8 6.2-14.2-0.2-11.1-9.4-20-20.6-19.8H470l68.7-78.9c3.5-4 5.2-9.2 4.7-14.5-0.5-5.3-3.2-10.1-7.3-13.4-8.8-7-21.6-5.9-29.1 2.5L416.2 389h8.5l-90.8-104.2c-7.5-8.5-20.3-9.6-29.1-2.5-4.2 3.3-6.8 8.1-7.3 13.4-0.5 5.3 1.2 10.5 4.7 14.5l68.7 78.8H256.6c-5.4-0.1-10.6 1.9-14.4 5.6-3.9 3.7-6.1 8.8-6.2 14.2 0 11 9.2 19.9 20.6 19.9H398v93.9H256.6c-5.4-0.1-10.6 1.9-14.5 5.7-3.9 3.7-6.1 8.9-6.2 14.2 0 10.9 9.2 19.8 20.6 19.8H398v107.6c0 11 9.2 19.9 20.6 19.9 11.2 0.2 20.4-8.7 20.6-19.9V562.2h144.9c5.4 0.1 10.6-1.9 14.4-5.6 3.9-3.7 6.1-8.8 6.2-14.2-0.3-11.2-9.5-20-20.6-19.8H439.3v-93.9h145z" fill="#ffffff" p-id="10624"></path><path d="M420.4 904.1C188.6 904.1 0 715.5 0 483.7S188.6 63.3 420.4 63.3c231.8 0 420.4 188.6 420.4 420.4S652.2 904.1 420.4 904.1z m0-775.2c-195.7 0-354.8 159.2-354.8 354.8 0 195.7 159.2 354.9 354.8 354.9 195.6 0 354.8-159.2 354.8-354.9 0-195.6-159.1-354.8-354.8-354.8z" fill="#ffffff" p-id="10625"></path><path d="M1005.3 841.6c24.5 19.5 24.9 59.7 1 89.7s-63.2 38.5-87.7 19l-217-159.9c-24.5-19.5-24.9-59.7-1-89.7s63.2-38.5 87.7-19l217 159.9z" fill="#ffffff" p-id="10626"></path></svg>