<svg t="1655553758229" class="icon" viewBox="0 0 1024 1024" version="1.1" xmlns="http://www.w3.org/2000/svg" p-id="11633" width="200" height="200"><path d="M647.43 320.26c-12.84-1.05-20.83 3.95-23.72 14.87-8.91 47.63-21.29 87.01-37.26 117.79-6.94 11.85-10.41 21.84-10.41 29.74 4.05 18 14.93 22.42 32.75 13.47v156.59c1.04 12.9 7.98 19.4 20.83 19.4 12.96-1.05 19.91-8.02 20.83-20.91v-241.5c3.93-14.87 8.91-37.75 14.81-68.54 1.04-11.96-4.98-18.93-17.83-20.91zM767.55 575.24v77.48c0.92 12.9 8.33 19.4 22.22 19.4 12.96-1.98 19.9-9.41 20.83-22.31v-73.07c27.66 31.71 50.91 53.67 69.78 65.52 16.89 12.89 30.66 12.89 41.65 0 5.9-8.01 4.51-16.38-4.51-25.32-40.62-30.9-72.67-61.68-96.39-92.47h86.09c12.96-1.04 19.9-8.01 20.83-20.91 0-13.01-6.48-19.98-19.32-20.91h-98v-19.4h62.37c22.68 1.98 33.21-8.36 31.13-31.25v-67.03c1.97-22.88-9.37-33.8-34.13-32.87H715.82c-25.8-0.93-38.07 9.4-37.14 31.25v68.54c-3.01 23.81 9.84 34.27 38.53 31.25v0.23h50.45v19.4h-83.2c-14.81 1.04-22.8 8.01-23.72 20.91 0.92 13.01 8.9 19.98 23.72 20.91h68.27c-22.79 32.76-51.03 62.61-84.7 89.45-11.92 9.87-13.42 19.86-4.51 29.73 11.92 8.95 23.72 8.95 35.64 0 22.79-13.93 45.47-36.82 68.39-68.53z m-35.53-152.18c-7.86 0.93-11.34-1.97-10.41-8.94v-32.76c-1.04-6.04 2.43-8.94 10.41-8.94h120.34c6.02 0 8.91 3.02 8.91 8.94v34.27c0.93 5.92-1.97 8.36-8.91 7.43H732.02z" p-id="11634" fill="#ffffff"></path><path d="M422.08 560.78c66.28-36.19 111.25-106.52 111.25-187.36 0-117.82-95.51-213.33-213.33-213.33-117.82 0-213.33 95.51-213.33 213.33 0 80.84 44.97 151.17 111.25 187.36C91.36 603.49 0 723.31 0 864.09c0 17.67 14.33 32 32 32s32-14.33 32-32c0-141.16 114.84-256 256-256s256 114.84 256 256c0 17.67 14.33 32 32 32s32-14.33 32-32c0-140.78-91.37-260.6-217.92-303.31zM170.66 373.42c0-82.34 66.99-149.33 149.33-149.33S469.33 291.08 469.33 373.42s-66.99 149.33-149.33 149.33-149.34-66.99-149.34-149.33zM928 160.09h-384c-17.67 0-32 14.33-32 32s14.33 32 32 32h384c17.64 0 32 14.35 32 32v544c0 17.64-14.36 32-32 32h-192c-17.67 0-32 14.33-32 32s14.33 32 32 32h192c52.94 0 96-43.06 96-96v-544c0-52.94-43.07-96-96-96z" p-id="11635" fill="#ffffff"></path></svg>